<?xml version="1.0" encoding="utf-8"?>
<!-- Generator: Adobe Illustrator 19.0.0, SVG Export Plug-In . SVG Version: 6.00 Build 0)  -->
<svg version="1.1" id="Layer_1" xmlns="http://www.w3.org/2000/svg" xmlns:xlink="http://www.w3.org/1999/xlink" x="0px" y="0px"
	 viewBox="0 0 600 200" style="enable-background:new 0 0 600 200;" xml:space="preserve">
<style type="text/css">
	.st0{fill:none;}
	.st1{fill:#010101;}
	.st2{fill:#50B2CE;}
	.st3{fill:#6AB345;}
	.st4{fill:#74CBF1;}
</style>
<g id="XMLID_31_">
	<rect id="SVGID_3_" x="-0.7" y="4" class="st0" width="600.7" height="192"/>
	<g id="XMLID_32_">
		<g id="XMLID_51_">
			<path id="XMLID_29_" class="st1" d="M264.1,89.2c0.1-3.8-0.2-7.5-1.9-9.6c-1.7-2.1-5.7-2.8-7.4-2.8c-7,0-9.7,4.2-10,5.1
				c-0.3,0.7-1.9,2.4-1.9,13.7v17.7c0,16.2,5.3,18.1,11.8,18.1c2.6,0,10.4-0.9,10.5-13.8h8.7c0.4,20.9-14.4,20.9-18.7,20.9
				c-8.2,0-20.9-0.6-20.9-26.2V93.6c0-18.7,8.2-24,21.2-24c13.1,0,18.2,6.8,17.3,19.6H264.1z"/>
			<path id="XMLID_65_" class="st1" d="M281.1,114.7c0-13.6,1.6-24.7,17.6-24.7c16,0,17.6,11.2,17.6,24.7c0,20.4-7.8,23.4-17.6,23.4
				C288.9,138.1,281.1,135.1,281.1,114.7 M308.4,111.5c0-12.7-3.9-15.4-9.7-15.4c-5.8,0-9.7,2.7-9.7,15.4c0,15,1.9,20.4,9.7,20.4
				C306.5,131.9,308.4,126.5,308.4,111.5"/>
			<path id="XMLID_62_" class="st1" d="M350,90.9h7.5v50.9c0,10.4-6.9,12.8-17.1,12.8c-7.7,0-14.7-3.9-14-12.4h8.4
				c0.1,4.3,2.9,6.7,7.1,6.7c5.2,0,8.1-3.2,8.1-8v-9.6h-0.3c-1.9,3.7-6.1,5.8-10.2,5.8c-12.6,0-15-10.8-15-24.6
				c0-21.3,10.7-22.6,14.5-22.6c4.9,0,8.7,2.1,10.8,6.6h0.2V90.9z M341.2,96.2c-8.5,0-8.8,10.3-8.8,16.4c0,14.9,3.4,18.3,9,18.3
				c9.1,0,8.8-10.7,8.8-17.1C350.2,106.9,350.7,96.2,341.2,96.2"/>
			<path id="XMLID_24_" class="st1" d="M394.8,137.2v-32.1c0-5-1.7-9-8.2-9c-8.3,0-9.4,7.3-9.4,13.6v27.4h-7.5v-36.7
				c0-3.2-0.2-6.4-0.5-9.6h8v6h0.4c2.9-5.2,6.4-6.9,12.4-6.9c9.9,0,12.4,6,12.4,15.1v32.1H394.8z"/>
			<path id="XMLID_58_" class="st1" d="M415.6,71h8.4v8.1h-8.4V71z M423.6,137.2h-7.5V90.9h7.5V137.2z"/>
			<polygon id="XMLID_21_" class="st1" points="463.6,97.8 443.2,131 464.3,131 464.3,137.2 435,137.2 435,130.1 455.2,97.2 
				455.2,97 436,97 436,90.9 463.6,90.9 			"/>
			<path id="XMLID_54_" class="st1" d="M496.9,130.5h-0.2c-2.3,5.3-5.9,7.6-11.6,7.6c-9.8,0-12.6-6.3-12.6-15.2
				c0-14,13.7-14.7,24.3-14.4c0.2-6.1,0.3-12.8-7.8-12.8c-5,0-7.7,3.4-7.2,8.2h-8.2c0.4-10.4,5.9-13.9,15.7-13.9
				c11.9,0,15,6.1,15,13.9v22.3c0,3.7,0.4,7.4,0.9,11h-8.3V130.5z M479.9,123.4c0,4.5,2.2,8.5,7.2,8.5c4.6,0,10.3-2.8,9.5-17.8
				C489.6,114.3,479.9,113.6,479.9,123.4"/>
			<path id="XMLID_18_" class="st1" d="M541.5,137.2v-32.1c0-5-1.7-9-8.1-9c-8.3,0-9.4,7.3-9.4,13.6v27.4h-7.5v-36.7
				c0-3.2-0.2-6.4-0.5-9.6h8v6h0.4c2.9-5.2,6.4-6.9,12.4-6.9c9.9,0,12.4,6,12.4,15.1v32.1H541.5z"/>
			<path id="XMLID_17_" class="st1" d="M563.9,90.9V82l7.5-3.4v12.3h10.1v5.7h-10.1v28.3c0,2.9,0,6.7,6.9,6.7c0.6,0,1.7-0.2,3.4-0.4
				v5.8c-2.5,0.2-4.9,0.7-7.4,0.7c-7.1,0-10.4-2.9-10.4-8.2V96.6h-7.6v-5.7H563.9z"/>
		</g>
		<g id="XMLID_33_">
			<path id="XMLID_16_" class="st1" d="M104.5,18.6c-47,0-85.2,38.1-85.2,85.2c0,47,38.1,85.2,85.2,85.2c47.1,0,85.2-38.1,85.2-85.2
				C189.7,56.7,151.5,18.6,104.5,18.6"/>
			<path id="XMLID_15_" class="st2" d="M111.1,152.5c0,4-1.7,8.7-6.6,8.7c-4.9,0-6.4-4.6-6.4-8.7v-12.2
				c-12.7-5.8-25.2-13.7-36.7-23.4v34.2c0,24.8,19.6,37.2,43,37.2c22.7,0,42.5-11.9,43.3-35.9c-11.5-0.2-24-2.6-36.6-7V152.5z"/>
			<path id="XMLID_14_" class="st2" d="M134.2,122.5h-23.1v0c5.5,2.9,10.8,4.5,15.7,4.5C132.2,127.1,134.2,125.3,134.2,122.5"/>
			<path id="XMLID_13_" class="st2" d="M81.7,77.4c-15,0-4.2,14.7,6,25.9c3.4,3.8,6.9,7.2,10.4,10.2V82.6c-0.9-0.5-1.7-1-2.6-1.4
				C90.7,78.7,86.1,77.4,81.7,77.4"/>
			<path id="XMLID_12_" class="st2" d="M98.1,54.9c0-4,1.5-8.7,6.4-8.7c4.9,0,6.6,4.6,6.6,8.7v9.3c7.3,3.4,14.6,7.6,21.7,12.7h14.9
				V56.4c0-24.8-20.2-37.2-43.3-37.2c-22,0-40.7,11-42.8,32.9c11.2,0.3,23.7,2.5,36.4,6.9V54.9z"/>
			<path id="XMLID_11_" class="st3" d="M170.1,112.9l-40.5,0.1c2.7,3.6,4.6,7,4.6,9.6h13.6v28.5c0,0.5,0,0.9,0,1.4
				c0.7,0,1.4,0,2.1,0c14.1,0,24.7-2.8,29.1-8.9C183.5,137.2,181.4,127.2,170.1,112.9"/>
			<path id="XMLID_10_" class="st3" d="M61.7,52.1c-1,0-2.1,0-3.1,0C25.1,52.1,18,70.9,47.4,103.2c4.4,4.9,9.1,9.4,14,13.6V56.4
				C61.5,54.9,61.6,53.5,61.7,52.1"/>
			<path id="XMLID_9_" class="st3" d="M111.1,64.2c-4.3-2-8.7-3.8-13-5.3v23.7c3.7,2.2,7.3,5,10.5,8.4l40.7-0.1
				c-5.3-5.2-10.8-9.9-16.5-13.9h-21.7V64.2z"/>
			<path id="XMLID_8_" class="st3" d="M111.1,145.5v-22.9c-4.3-2.3-8.6-5.3-13-9v26.7C102.5,142.2,106.8,144,111.1,145.5"/>
			<path id="XMLID_7_" class="st4" d="M98.1,113.5c-3.5-3-7-6.4-10.5-10.2c-10.2-11.2-21.1-25.9-6-25.9c4.4,0,9.1,1.2,13.9,3.8
				c0.9,0.4,1.7,0.9,2.6,1.4V59c-12.7-4.4-25.2-6.6-36.4-6.9c-0.1,1.4-0.2,2.8-0.2,4.3v60.5c11.4,9.8,23.9,17.6,36.7,23.4V113.5z"/>
			<path id="XMLID_6_" class="st4" d="M111.1,77h21.7c-7.1-5.1-14.4-9.3-21.7-12.7V77z"/>
			<path id="XMLID_5_" class="st4" d="M147.8,122.5h-13.6c0,2.7-2,4.5-7.4,4.5c-4.9,0-10.2-1.6-15.7-4.5v22.9
				c12.6,4.4,25.1,6.7,36.6,7c0-0.5,0-0.9,0-1.4V122.5z"/>
			<path id="XMLID_34_" class="st1" d="M197,159.7c-1.5,1.5-3.3,2.2-5.4,2.2c-2.1,0-3.9-0.7-5.4-2.2c-1.5-1.5-2.2-3.3-2.2-5.4
				c0-2.1,0.7-3.9,2.2-5.4c1.5-1.5,3.3-2.2,5.4-2.2c2.1,0,3.9,0.7,5.4,2.2c1.5,1.5,2.2,3.3,2.2,5.4
				C199.2,156.4,198.5,158.2,197,159.7 M187,149.7c-1.3,1.3-1.9,2.8-1.9,4.6c0,1.8,0.6,3.4,1.9,4.7c1.3,1.3,2.8,1.9,4.6,1.9
				c1.8,0,3.4-0.6,4.6-1.9c1.3-1.3,1.9-2.8,1.9-4.7c0-1.8-0.6-3.4-1.9-4.6c-1.3-1.3-2.8-1.9-4.6-1.9
				C189.8,147.8,188.3,148.4,187,149.7 M191.5,150.1c1,0,1.8,0.1,2.3,0.3c0.9,0.4,1.3,1.1,1.3,2.1c0,0.7-0.3,1.3-0.8,1.6
				c-0.3,0.2-0.7,0.3-1.2,0.4c0.7,0.1,1.1,0.4,1.4,0.8c0.3,0.4,0.5,0.9,0.5,1.3v0.6c0,0.2,0,0.4,0,0.6c0,0.2,0,0.4,0.1,0.4l0.1,0.1
				h-1.4c0,0,0-0.1,0-0.1c0,0,0-0.1,0-0.1l0-0.3v-0.7c0-1-0.3-1.6-0.8-1.9c-0.3-0.2-0.9-0.3-1.6-0.3H190v3.3h-1.5v-8.4H191.5z
				 M193.1,151.4c-0.4-0.2-1-0.3-1.8-0.3H190v3h1.3c0.6,0,1.1-0.1,1.4-0.2c0.6-0.2,0.9-0.7,0.9-1.3
				C193.6,152.1,193.4,151.6,193.1,151.4"/>
		</g>
	</g>
</g>
</svg>
